<svg id="Layer_1" data-name="Layer 1" xmlns="http://www.w3.org/2000/svg" viewBox="0 0 410 404"><path d="M140.68,280.25l-7-13.26,4.08-16.6,29.07-11.23-12.37-25.39,6.11-25.64,11.48-23,35.48-5.58,26.07-24.85L289.88,139l11.05,60.19L279.65,275l-12.12,39.23-49.14,1.86-22.82-15.8-26.71-11.16Z" fill="#e2cc85"/><path d="M226.87,279.83s-6.8,3.11-18.39,2.39c-3.36-4.5-26.85-6.61-26.85-6.61s-2.94-.9-8.12,1.25-10.16,1.86-14.77,3S149.55,275,146,273.75a50.1,50.1,0,0,1-8.23-4.51l-9.91-1L108,259.87,76.41,228.4l-8.58,13.45-2.65,16.62,9.55,19.71,25.71,23.42,50.14,12.74,29.72-8.77,37.23-15.73,9.34-10Z" fill="#f1d789"/><path d="M48.73,168.6l6.37-19.27,7.58-12.45,24.42-2-7.33,21.39L59.35,192.56,67.83,225l-15,7.51-4.62-7.08-3.71-16.24L44.23,191Z" fill="#f4ecb4"/><path d="M76.13,278.5,71.44,272a10.79,10.79,0,0,1-.54-5.83c.72-2.76.61-2.93.25-4s-3.36-4.62-3.18-7.69-.25-4.15,2-6.62,1.68-6.54,1.68-6.54l3.11,1.93.72-1.07a3.18,3.18,0,0,1,1.14,2.29c.25-1.94-.78-10.88,1.58-12.91s6.54,9.54,6.54,9.54l-2.57-16.8-6.62-17.24L63.82,191.31,63.11,174v-1.5s-5.4,8.29-6.9,14.84c-1.08,4.5,1.5,10,1,16.45s-1,5.93.61,8.47,5.4,7.8,3.9,11.59c-1.33,3.25-5.83,1-5.83,1s-.9,2.64-2.11,3.61A8.07,8.07,0,0,0,52,224.86c-.08.61-.25,1.43-.25,1.43s-.79-2.47-1.58-5.58c-1.07-4.15-2.22-9.62-3.25-12.55-.43,1.68-1.5,6.79-1.5,6.79l.6,7.87L49,233.62l2.82,7.08,2.75,8.66,2.4,5.82,1.93,4.44,1.68,10,8.12,8.58L73,280.11l3.15-1.61Z" fill="#f3e19d"/><path d="M53,152.87s-5.83,9.9-7.51,19.88-3.19,20.53-2.11,34.12A141.64,141.64,0,0,0,48.12,235c2.83,10,10.16,23.85,10.16,23.85l.25-.53A37.55,37.55,0,0,1,55.6,251c-1-3.79-1.33-8.29-2.22-10.33s-2.11-3.79-2.75-6.3-.72-6.18-2.58-9a18.45,18.45,0,0,1-2-7.15c-.35-4.51.18-9.55-.25-13.7-.78-6.9-1.32-11.58-.6-15.2s4.43-13.87,6.72-22c1.5-5.22.61-9.62,3.36-14.16a40.06,40.06,0,0,0,5-11.23c.72-2.5-7.29,11-7.29,11Z" fill="#f2e8b0"/><path d="M80.63,148.9a11.65,11.65,0,0,0-4.43,2.46,66.21,66.21,0,0,0-4,5.3c-1.93,2.57-2,4.61-3.61,7.79s-5.05,7.8-5.48,9.48-1.14,9.55-2,13.27.89,8.3.89,8.3l2-.43a6.41,6.41,0,0,0,2,4.43c2,1.75,2.39-5.93,2.39-5.93l7.62-25.72,11.48-7.79,1.25-6.3Z" fill="#f5eec0"/><path d="M86.21,160.56s-5.4.35-8,2.28c-1.07.79-1.5,1.44-2.64,2.4-2.11,1.75-4.26,3.36-5.3,5.65s-2.39,5.76-3.25,12.3c-.36,2.76-.36,5.3-.61,7.51-.36,3-.89,5.4-.61,7.09.36,3.43,3.9,5.22,4.26,9.11l7.33-3.71L84.24,176l14.67-9.19-8.3-9.3-4.4,3.08Z" fill="#e6db9d"/><path d="M87.36,403.49l-32.73.79L37.29,403s1.07-12.73,1.32-15.74a79,79,0,0,1,3.25-8.12,18.28,18.28,0,0,0-.25-9.47c.79-1.26,3.26-1.94,6-26.61,1.08-9.19,1.25-16.17,2-20.53,1.15-6.19,1.93-8.48,1.75-10.8a49.32,49.32,0,0,1-.18-9.3c.54-3.79,4.26-8.3,4.15-11.41-.07-2.46-1.32-4.07-2.39-5.58s-1.93-2.75-1.93-2.75,7.33-5,7.26-25.36a2.28,2.28,0,0,1,.42.18l3.62,10.27,2.46,3,9.48,17.67,12.2,11.84,18,12.12,11.3,12.3,1.15,32.8L102.2,376.64,87.36,403.49Z" fill="#e5cb7a"/><path d="M92.65,375.2a10.11,10.11,0,0,1,3.61-6.72,4.05,4.05,0,0,1,.79,2.4,21.26,21.26,0,0,1,14.48-9.73c9.62-1.75,12-8.76,12-8.76l20.42-18.56,23.35-21.5,28.4-10,13.26-3.26a7.32,7.32,0,0,1-.25,3.11,65,65,0,0,0,13.63-3.43c2.29-.89,4.43-1.25,5.58-.07,1.68,1.57,1.93,5.29,2,7.51,2.75-.61,5.93-3.26,8.47-3,4.08.43,7.69,5.23,11.84,5.23,5.47,0,7.94-3.37,11.77-6,2.28-1.58,5.57-3.54,7.43-4.87,4.44-3.25,51.36-17.59,51.36-17.59L337.23,281l2.65,17.67-1.43,46.42-75.32,39.34L144.4,402.67,96.05,390.3l-3.4-15.09Z" fill="#d8c173"/><path d="M42.44,403.6a101,101,0,0,0,6.36-24c1.68-11.59.18-14.23.61-17.95.61-5.58,6.9-16.45,7.44-18.56.43,4.32,1.68,20.67,6.19,24.31-1,1.43-2.58,6.37,3.18,10.16-1,2-2.93,4.51-1.68,8.23s2.75,9,2,14.84a12.27,12.27,0,0,0-6,3c-1.75,1.58-18.13-.07-18.13-.07Z" fill="#f1d789"/><path d="M116.61,396.77,143,389.44l1.14.36s.61.35.61,1.57c1.68-1,3.11-.79,4.15-1.43.53,1.14,1.07,4.93,3.43,5.4s5.11-1.07,7.8-3.11,5.65-4.76,7.94-5.83a41.11,41.11,0,0,1,2.21,4.76c3-2.4,8.23-12.13,15.67-12a28.15,28.15,0,0,1,10.33-12.48c6.91-4.69,11.23-5,16.63-4.61a28.35,28.35,0,0,1,7.8-7,7.18,7.18,0,0,0,6.44.43c3.11-1.43,6.61-7,11.23-7.69a10.84,10.84,0,0,1,7.15,1.5S259,336,268.21,331.61c-.36-1.07-1.07-5.11,9.8-14.05.61.53.18,2,.61,2.11A25.75,25.75,0,0,0,284.8,316c4.15-3.12,9.12-6.37,12.13-7.26,5.65-1.68,11.65,1.75,11.65,1.75a5.36,5.36,0,0,1,1.69-.79,21.83,21.83,0,0,0,3.25-.71c-.07,1.86,1,5,0,7.79a16.87,16.87,0,0,0,3.54,1.5c-.61,1.33-1.93,4.69-4.15,6.3,1.86.89,2.11,1.93,4.76,2.82a54.2,54.2,0,0,0-3.61,5.65c-.79,1.69-3.62,8.66-4.87,11.31s-3.11,7.51-4,8.47-4,5.12-6.36,7.15c2.11-.78,10.8-3.43,14.48-4.43-2.22,3.25-22.71,33.69-22.71,33.69l-41.27,12.3-20.24,3.43-105.47-.07-9.29-4.61Z" fill="#e0cd81"/><path d="M87.1,159.59s-3.11,0-3.71.43,3.11,1.32,4.25,1.75a9.81,9.81,0,0,1,4.26,4c.61,1.5,22.35,10.27,22.35,10.27l15.38-.79,5.29-7.33-10.09-8.84,7.09-20.85-9.37,1.51L100,153.15l-11.31,4.33-1.61,2.11Z" fill="#dfc57c"/><path d="M120.87,166.49a2.4,2.4,0,0,0,2.11,1.15c3.18,0,6.11.78,7.33,2.39,2,2.58,7.69,10.8,7.69,10.8l13.51,4.87.9-15.92-14.77-10.26-16.81,6.19v.78Z" fill="#e5cc7c"/><path d="M118.22,172.39a14.75,14.75,0,0,0,5.58-1c3.11-1.15,8.22-3.61,10.44-2.65,3.11,1.32,2.47,5.47,5.83,9.19,2,2.29,5.76,2.22,7.87,4.69s9.37,1.32,9.37,1.32l2.75,14.84L149,213l-3.61,17.6h-15l-13.66-5.4-6.73-16.27,3.37-16.45Z" fill="#d2c281"/><path d="M147.12,173.11a4,4,0,0,0,1.14.18,3,3,0,0,0-1,3.18c.36,2,1.51,4.61.54,6.19a7.62,7.62,0,0,1,1.68,2.93c.61,1.75.79,3.36,4.76,3.61a8.56,8.56,0,0,0-1.58,1.25,25.93,25.93,0,0,1,4.15,4.62,34.9,34.9,0,0,0,5.22-1.25l.79.53,1.68-.71s-1.57-.61-.43-4.44c1.08-3.36,2-3.18,2.11-3.43a36.83,36.83,0,0,0,.79-5.22,61.5,61.5,0,0,0,1-7.51l-1.14-12.48-6.44-3.9-5.22-5-4.93,9.29L147,164.17l-.25,8,.4.9Z" fill="#e2c270"/><path d="M162.6,162.67a43.75,43.75,0,0,1,1.57,5.75,5.5,5.5,0,0,0,.25-1.5s.9,4.94,1.08,7c.35-.08.71-.18.78.17a30.1,30.1,0,0,1,.72,6.55,17.85,17.85,0,0,1,6-6,10.52,10.52,0,0,1,4.86-1.93c2.75-.07,4.76,1.75,8,1.75,7.94,0,15.13-5.83,20.42-7.62,3.9-1.32,7.26-2.28,9.62-4.43a25.49,25.49,0,0,0,5-6.29c2.47-4.26,5-7.94,7.62-8.41a15.85,15.85,0,0,1-3.54.25s.79-.79,2.11-1.86,2.93-2.39,5.22-2.39c4.08,0,6.12.6,8.4.6a11.62,11.62,0,0,0,3.62-.6s2.39,1.68,7.79,1.68,9,.53,11.84.78,12.3-.78,15-.71a13,13,0,0,1,5.11,1.25l-8.76-25.46L244,93.72,225.22,107,196.4,135.81l-27.9,10.33-5.83,6.55v10Z" fill="#ccb360"/><path d="M225,150.47c-1.25.07-2.29-.18-2.58-1.07-1.07-3-1.93-3.44-2.82-3.44s-2.11,1.94-2.83,2.11-1.57-2.21-1.57-2.21l-.79-.36a48.09,48.09,0,0,0-7.87,6.54c-3.25,3.54-8.58,9.55-11,10.63s-10.62,1.43-13.44,2a17.24,17.24,0,0,0-6.37,3.12c-.43.46,1.25,1,1.5,1.43s-2.75.25-3,.71.71,2.4,1.14,3.43a6,6,0,0,1,2.47-.6c2.75-.07,4.76,1.75,8,1.75,7.94,0,15.13-5.83,20.42-7.62,3.9-1.32,7.26-2.29,9.62-4.43a25.4,25.4,0,0,0,5-6.3,44.37,44.37,0,0,1,4-5.72Z" fill="#d2b257"/><path d="M111.14,327.46s-.72-2.64-7.26-9.48c-1.86-1.93-3-3.54-4.26-4.68-3.11-2.93-4.93-3.72-7.15-5.4-4.86-3.61-10.16-3.61-14.23-8s-8.84-12.91-12.13-21.56S62,266.88,62,266.63s.9-1.93,2-1.68,1.15,2.47,1.43,3a17.78,17.78,0,0,0,1.93,2.47c1.68,1.93,4.08,4.26,5.3,7.69a34.55,34.55,0,0,0-1.26-6.19s6.3,4,11.66,8.12,7.62,5.58,9.19,8.23,5.3,9.62,7.09,11.65,26.17,9.73,26.17,9.73l11.59,8.66,5.76,12.62L138.35,338l-8.65,1.86-14.06-6.29-4.5-6.12Z" fill="#d2b159"/><path d="M79.92,284s2.93,4.69,10.08,9.12c6.44,3.9,16.63,7.44,25.72,9.55a71.91,71.91,0,0,0,15.12,2.29c12.63.18,21.32-3.43,32.08-4.61,5.83-.61,13-1.08,20.42-2.83,9.55-2.29,15.2-4.86,22.89-8.47,5.58-2.58,10.69-4.51,14.84-7,5.83-3.43,10.09-7.26,15-8.4-.6,1.68-1.25,4.68-6.11,7.79,2.57-.07,6.11-.25,6.11-.25a115.18,115.18,0,0,0-9.47,6.62c-3.72,2.83-8.66,7.62-13.7,10.8-3.26,2-6.8,3.54-9.12,4.76-5.65,3.11-7.94,4.68-11.66,8.47a5.11,5.11,0,0,1,1.43,0,27.94,27.94,0,0,0-8,2.4,10.81,10.81,0,0,0-4.07.36c-1.68.53-3.9,1.75-6.19,2.39-3.25,1-4.33.54-4.33.54l.54,1.07s-4.26-.07-5.65.07c.25.08.18.18.18.18a2.19,2.19,0,0,0-.72.25,7.35,7.35,0,0,1-2.21,1c-.43.07-.79.07-1.33.18.18.43,1.58,2.82,2.22,4.25-.54.36-8.58,6.44-8.58,6.44a6.57,6.57,0,0,1,.6,1.25c.25.79.36,1.93.61,2.47.61,1.07,1,1.25,1,1.25s-1,.18-2.65.61a44.82,44.82,0,0,1-5.65,1.32c-.71.07-1.5.18-2.29.18a6.25,6.25,0,0,1-1,7.26c-2.94,3.43-3.79,4-4.69,6.19a9.26,9.26,0,0,0-1.43-.9,5.93,5.93,0,0,1-2.75-1.93,22.07,22.07,0,0,1-1.08,3.36c-.89,2.4-2.21,4.76-2.46,6.55-1-1.07-2.76-3.18-5.22-2.75s-4.44,3.79-4.87,4.75c0-.61-.43-1.07-.53-.36a27.26,27.26,0,0,1-9,15.67c-.07-1.68-.07-5.4-.25-6.62-.71.72-1.57,1.76-6.72,4s-4.26,4.44-4.26,4.44a11.07,11.07,0,0,1,2.29-7.26c2.76-3.72,4.44-5.47,4.44-5.76a1.59,1.59,0,0,0-.36-.79c-.36-.36-1.07-.78-1.07-1.07.43-.18,4.68-2.22,4.43-6.44a11.43,11.43,0,0,0-3-7.15c-.18-.18,1.68-1.5,1.43-1.93-.18-.25-2.47-1.93-2.76-2.83a8.89,8.89,0,0,1,.36-1.57,4.47,4.47,0,0,0,.36-1.86,15.18,15.18,0,0,0-1.43-3.61,19.66,19.66,0,0,0,2,0,17.67,17.67,0,0,1-1.68-3.36,41.54,41.54,0,0,0-1.08-4.44c.61.07,2.11.18,2.11,0,.07-.53-1.32-1.43-.71-2.11a3.61,3.61,0,0,1,2,1.43c-.43-1.14-1.15-3.36-2.65-4.25a6.49,6.49,0,0,1,5.22.35,7.07,7.07,0,0,1,2.83,3s1.25,1,3.18,2.39a34.22,34.22,0,0,0,9.55,6c1,.54,3.43.54,5.22.18a8.32,8.32,0,0,0,2.22-.89,4.29,4.29,0,0,1,.78-.36,16.94,16.94,0,0,0-1.32-2.22c.61,0,1.32.07,1.32.07s.43-1-1.5-2.82c.43-.43,1-.72,1-1.43A4.21,4.21,0,0,1,134,327.6c.35-.25.89-1.07,1.5-1.32-.54-.43-1.86-2.22-2.47-2.39a11.14,11.14,0,0,0,1.68-.79,20.89,20.89,0,0,1-4-1.43,22.24,22.24,0,0,0-3.25-2.29c-.9-.36-2.47-.54-3.11-1.25a9.65,9.65,0,0,0,2.28,0c.54,0,.79.07,1,.07-.07-.25-.07-.79,1.32-1a6.6,6.6,0,0,0,1.93-.6,5,5,0,0,1-2.82-1.51c-1.5-1.43-2.75-2.57-3.61-2.75s-2.58.61-3.61.54a3.23,3.23,0,0,1-2-.9s-4.76.43-15.31-6c-9.12-5.58-13.09-10.51-13.09-10.51A16.39,16.39,0,0,1,88,294.35c-3.43-1.79-8.19-5.51-8-10.38Z" fill="#c2a44d"/><path d="M211.49,69.32a4.64,4.64,0,0,1,2.11,1.44c1.68,1.93,2.75,5.57-1.07,9.47a6,6,0,0,0,3.43.54c-1.32,1.57-4.33,4.93-4.51,7.87-.18,2.39,1.33,3.11,1.33,3.11a11.9,11.9,0,0,0-2.4,7.08,28.4,28.4,0,0,1,3.54-3.36,93.74,93.74,0,0,1,8.76-6,5.16,5.16,0,0,0,.25,1.86s4.62-3.79,8.48-2.11c1.75.79,1,3.25,1,3.25a4.1,4.1,0,0,1,4.08.79c1.68,1.68,4.08,6,5.29,7.69a55.82,55.82,0,0,1,3.37,4.61A58.47,58.47,0,0,1,250,115.82c.07-1.86.54-4.76,5.83-2.94s11.3,5.76,16.34,13.45,6.3,16.34,8.84,19.63,5.22,8.48,5.4,10.7-.79,9.37,4.5,28.72c1.5-6,3.79-19.35,3.79-19.35l1.25-11.77,1.44-36.4-38-31.58L229.62,64.71l-19.35,1.86,1.22,2.75Z" fill="#caa13e"/><path d="M282.12,123.51s-.54-3.54-9.48-9.55-15.91-5.94-22.35-11c-4.93-4-10.08-13.09-13.45-16.1s-3.79-11.55-3.79-11.55l11-9.19,16.35-23.6,13.8-15.2,6.62,9.19L290,47.33,295.1,69,297,100.72l-14.84,22.79Z" fill="#b59544"/><path d="M293.17,161.52a40.29,40.29,0,0,0-1.75-14.23,259.09,259.09,0,0,0-9.91-25.21c-1-5.41-.25-5.83.79-6.44s4.93-2.83,7.08-10.62,8.76-8,8.76-8l4.08-3,6.19,15.48,5.4,14,1.68,10.7,1.25,9.12-2.93,19.27-14.49,13.09-6.15-14.09Z" fill="#c89d3a"/><path d="M87.36,403.49s-3.26-6-3.44-8.58a8.06,8.06,0,0,1,.9-4.08,7.31,7.31,0,0,0-2.4-2.29,7.94,7.94,0,0,1,1.68-3.79c1-1.14,2.83-2.64,3.18-3.18s.54-1.25,1.58-1.43,2.21-.18,2.21-1.57V376a3.12,3.12,0,0,0,.79-.71c.25-.36.43-.79.61-.9a6.59,6.59,0,0,1,2.93-.53c.9.17,3.26,1.14,4.51,1.07,2.57-.07,5.58-2,10.33-1.15,7.16,1.33,8.84,6.19,13,9a8.21,8.21,0,0,0,6.18,1.07h1c.18,0,1.5-1.5,2.22-1.43,1.43.07,1.57,1.25,2.46,1.32,2.11.25,6.19-1.07,8.23-.54a3.93,3.93,0,0,1,2.57,2.58,4,4,0,0,1-1,4c-2.22,2-4.33,4-4.76,5.65.61.43,1.68,1.43,1.68,1.43a14.17,14.17,0,0,1-6.18,2.9c-2.65.25-5.94.6-7.87,3.43s-8.59,1.25-8.59,1.25l-31.82-.86Z" fill="#ceb052"/><path d="M281.51,304.93s5.58-7.44,7.51-11.12-6.11-51.89-6.11-51.89l16.16-53-.43-17.24s.79-15.91,2.65-22.81c2.22,4,9.12,8.76,10.62,11.3.72-4.87,3.11-15.13,2.75-26.07,1.33,2,4.51,22.53,4.51,22.53l3.18,13.8,4.15,14.67,4.62,15.48,2.75,10.69,1.57,2.58,1.33,4.5,1.25,4.87,3.61,11.41,2.11,9.37,1.68,17a25.86,25.86,0,0,1,.79,4,16.7,16.7,0,0,1-.25,3.26,39.6,39.6,0,0,1,.35,6.9c-.35,2.83-.35,5-2.57,7.08s-3.61,14.16-3.61,14.16l-4-2.64a10.86,10.86,0,0,0-1.07-6.91,7.05,7.05,0,0,0-7.52-3.43c-2,.43-6.11,1.07-7.43,2.22s-4.33,4.68-7.16,6.29c-3.54,2.11-9.29,2.29-12.37,3s-6.54,2.82-10.16,5.29a56.59,56.59,0,0,1-8.94,4.72Z" fill="#cca847"/><path d="M281.51,383.07a30.72,30.72,0,0,0,8.84,3.44c5.72,1.39,20.34,9.8,20.34,9.8L323,403.82,338.2,405l13.34-1.86s.43-5.65-.43-26.71-1.58-24.14-1.58-25.72-.53-28.39-1.14-34.22-.18-11.77-.36-15.2-2.11-17.42-3-21-2.83-5.4-3.11-5.4a42.94,42.94,0,0,0-1.76,8.47c0,1.69-.35,5.76-.35,6.8-.25-.07-.36-.72-.36-1-.36.9-.79,2.47-1,2.65s.25-1.5,0-1.86-.71-.18-.61-1.07a11.38,11.38,0,0,1,.25-1.58,16.48,16.48,0,0,0-1.85,5.58c-.79,4-.79,4.08-1.08,4.44s-1.68,1.86-1.75,2.39c-.07,1,1.32,1.93,1.43,2.47.07.9-1.25,5-1.68,7.08s-.25,6-.72,8c-.35,1.86-.71,2.93-1.93,3.72.9.18,1.76.43,1.76.43a13.21,13.21,0,0,1-1.94,9.8c-1.14,1.57-1.43,2.29-2.64,3.72-2.4,2.64-4.26,5.65-4.44,7.61a12.13,12.13,0,0,1-.25-1.75,83.5,83.5,0,0,0-5.29,6.8c-2,3.18-4.86,3-5.65,3.79a3.8,3.8,0,0,0-.72,3.36c-.71.18-2,.43-2.93,3.18a6.69,6.69,0,0,1-3.18,3.79,16.63,16.63,0,0,1-4.76,1.5,5.55,5.55,0,0,1,1.68.54c-.53.89-3,2.29-5.75,4.08a12,12,0,0,0-4.76,5.76,4.13,4.13,0,0,1-3.43,2.64c.71.43,1.75,1.43,2.28,1.75a8,8,0,0,0-4.5,2.22c-2.51,2.08-3.36,2.68-4.51,2.86Z" fill="#c39d3c"/><path d="M228.37,402.89s2.22-3.44,7.79-5.58,11.48-2.65,13.81-3.37,4-1.68,6.72-2.21a19.63,19.63,0,0,1-1,5.22c2,.36,7.15-3.61,9.9-4.51s9-2.21,9.55-2.64,1.68-3,2-3.12,1.32.54,1.93.54c1.15,0,9.19-7.44,15.56-7.33s13.45,5.29,12.37,10c1.68-1,3.44-1.86,4.87-1.5a8.13,8.13,0,0,0-.25,1.32s3.43-.79,4.32.36.43,2.21,2.76,4.93c1.86,2.29,1.32,2.83,1,3.61a25.07,25.07,0,0,1,9.37,5.58c4.08,3.79-32.54,1.43-32.54,1.43L229,405l-.64-2.11Z" fill="#d2ba6b"/><path d="M334.62,252.93A43.86,43.86,0,0,1,331.44,263c-2,3.89-4.26,9.3-4.26,9.3a17,17,0,0,1,.43-3.62c-2.57,1.51-8.83,5.12-10.62,6.73s-4.51,4.14-5.22,5.4c1.68-4.94,3.43-9.37,3.72-11.41a228.57,228.57,0,0,0-20.85,18.31L275.15,303.5a67.52,67.52,0,0,1-6.91,3.25c-3.36,1.44-7.33,2.65-10.26,3.8a16.38,16.38,0,0,1,3.79-5.76c1.86-1.75,7.44-7.8,8.3-10.62s1-4.69-.07-7.16c-1,.25-3.19.36-4.69.79a9.16,9.16,0,0,0-3.11,2,72.82,72.82,0,0,1,3.61-12.73c-1.86.07-5,.61-5,.61a45.36,45.36,0,0,1,12-12.63,39.34,39.34,0,0,0-6.8,2.11c-4.43,1.86-9.3,4.61-12.91,6.12,2-2.83,16.34-23.25,24.86-42.28s11.65-23.85,13.51-34c1-5,.72-12.48,1-19.17s1.07-12.55.54-16.52c2.21,2.75,10.51,10.51,10.8,27.86s-7.94,40.77-16.63,53.39c2.11.61,7.61,1.32,13.26-8.48S306,221.53,308,217.45a15.13,15.13,0,0,1,.18,2.76,74.84,74.84,0,0,0,12.12-22.53c.79,5.4,3.12,10.15-.53,20.06-3.26,8.94-7.51,11.12-7.51,11.12a16.73,16.73,0,0,0,5.22-2.21c.54,1.32.43,2.82,1.32,3.36s2.11,1.43,2.29,2.29c1-1.43,2.47-3.26,2.93-4.62-.35,2.83-.6,15.2.72,21.5,2.75-.25,5.58-.43,7.51-5.4a22.15,22.15,0,0,0-.43,11.94,14,14,0,0,0,2.79-2.79Z" fill="#c0993a"/><path d="M241.71,55.81A21.19,21.19,0,0,1,234.27,57c-4.08,0-2.93-1.57-9.3-1.57-9.8,0-44,5.65-50,5.58-3.9-.08,13.16,1.68,13.16,1.68l43.59.61,8.77-.72,3.25-6.62Z" fill="#a88f33"/><path d="M128.66,141s-5.58,4.26-7.94,7.51-3.61,5.4-6.29,8.05a5.53,5.53,0,0,0,1.86-.25s0,.71-.43.89a2.51,2.51,0,0,1,2,.72,3.62,3.62,0,0,0-1.25,5.11,5.5,5.5,0,0,0,3.89,2.11s-.6,1.75,1.93,1.57c5.48-.25,11.59-2.64,14.42-2s4.43,1,6.43,4.44,4,4,4,4a20.13,20.13,0,0,0,1-7.94,23.65,23.65,0,0,0,1.68-8l-1.86-13.69L140,133.16,129.45,139l-.79,2Z" fill="#e3c571"/><path d="M138.64,139s.79,1.86,4.08,2a1.83,1.83,0,0,0-.25,1.5l.17,1.5a3.49,3.49,0,0,0,1-.71c.18.79-.18,2,0,2.93a6.46,6.46,0,0,0,.54,1.57,2.8,2.8,0,0,1,.18-.35,14.3,14.3,0,0,0,2.46,3.54,1.48,1.48,0,0,1,.18-.72,2.46,2.46,0,0,0,.43,1.25,1.28,1.28,0,0,1-.36-.25s.18,5.65,1.15,8.59a4,4,0,0,0,.43-.61c0-.18-.07,1.57-.25,2.82a12.38,12.38,0,0,0-.07,3,9.1,9.1,0,0,1,2.11-1.25c1.07-.43,2.82-1.76,3.89-4.69a30.29,30.29,0,0,0,1.43-5.11,7.15,7.15,0,0,1,.72,2.11c.07.89,1.75.43,1.75.43l.36-3.9,2.11-8.84,1.93-5.47,9.3-14.48L188.71,111l14.66,3.36,12.37-16.81-21.31-12.8-20.17,2.11L156,112.2l-14.66,23L138.64,139Z" fill="#d8b65b"/><path d="M244.28,102.3a23.48,23.48,0,0,0-4.86,2.11c-3.61,1.86-6.12,2.47-7.51,5.22a12.69,12.69,0,0,0-1.5,4.93,33.91,33.91,0,0,1,3.9-1.43c1.5-.35,3.18-.25,3,.36a4.18,4.18,0,0,1-.72,1.15s2.83-.08,2.76,1.32a7.15,7.15,0,0,1-1.08,3.61c-.53.72-2.75,1.75-3,2.58-.61,1.68.25,1.75-.07,3.11s-1.43,3.9-5.29,8.4a44.84,44.84,0,0,0-5.65,7.69,48.36,48.36,0,0,1-2.94-6.72c-.71.36-4.5,2.47-4.5,2.47L208,106.45l.18-2a5.55,5.55,0,0,0,1-2.76c-1.32-.42-1.5-.78-3.25-2.46s-3.18-3.72-6.12-5.12a3.89,3.89,0,0,0-3.11-2.29c-2.11-.43-3.43-.78-3.43-.78a3.73,3.73,0,0,0,1.68-1.33,22.09,22.09,0,0,1-5.29.54,22.42,22.42,0,0,0-4.87.07c-1.61.25-3.54,1-4.25-1.5-.79-.61-2.47-.07-3.9,2s-1.93,3.79-4.69,4.61a9.36,9.36,0,0,1-1.25,3.43,38.49,38.49,0,0,1-3.72,4.62c-2.64,3.11-2.21,8.22-6.43,12.12s.71-10.8.71-10.8L168,88.53l19.34-18.92,30.05-2,2.93,15.56,14.66,5,9.26,14.13Z" fill="#d3ae4d"/><path d="M249,105.73l-12.62-18.2-8.84-6.8s-6.29-11.58-6.72-11.94a83,83,0,0,0-10.09-1.15l.72,1.76a4.57,4.57,0,0,1,2.11,1.43c1.68,1.93,2.75,5.58-1.07,9.47a6,6,0,0,0,3.43.54c-1.32,1.57-4.33,4.94-4.51,7.87-.18,2.39,1.33,3.11,1.33,3.11a11.94,11.94,0,0,0-2.4,7.08,28.4,28.4,0,0,1,3.54-3.36,93.74,93.74,0,0,1,8.76-6,5.11,5.11,0,0,0,.25,1.86s4.62-3.79,8.48-2.11c1.75.79,1,3.25,1,3.25a4.1,4.1,0,0,1,4.08.79c1.68,1.68,4.08,6,5.29,7.69a55.82,55.82,0,0,1,3.37,4.61A58.47,58.47,0,0,1,250,115.89c.07-1.43.36-3.44,2.82-3.44Z" fill="#caa13e"/><path d="M59.78,157.44s-.89-2.21,0-6.54,2.29-6.37,2.76-12.73,4.61-14.31,4.61-14.31l11.48-5.22,8.12,2.22,2.39,10.87-10.26,5.65a7.91,7.91,0,0,1-3.43,4.33c-2.94,1.93-6.91,3.43-7.87,5.4a15.55,15.55,0,0,0-1.25,3.79s-2.94-.61-4.69,1.32a6.86,6.86,0,0,0-1.86,5.22Z" fill="#f4efc8"/><path d="M83,154.55a5.21,5.21,0,0,0-1.68,2.11c-.72-1.15-2.4-7.94-2.47-14.06s-.43-7.61,1-9.72,7-4.33,6.19-8.12c-.79-3.61-4.08-5.12-8.12-4.08-2.82.72-4.93,6.72-7.87,9.73-2.21,2.29-4.86,1.93-5.57,3.18-1,1.68-.08,3.36-.36,4.44a21.71,21.71,0,0,1-2.58,4.61c-3.25,4.68-8.76,11.3-9.47,17.24a29.65,29.65,0,0,1,1-7.16l-.54-.89L56,140.24l2.28-9.55,5.12-16,9-16.35,8.76-9.79,9.12.6,1.07,13.7,5.23,25.71,11,13.52-17.6,11.84-7,.61Z" fill="#ebcc73"/><path d="M88.43,159.41a4.4,4.4,0,0,1-2,.07c-.54-.25-1.07-.6-.89-1s1.14-1,1.14-1.25a1,1,0,0,0-.89-1.08,1,1,0,0,0-1.08.43,3.93,3.93,0,0,0-1.43-.71,10.45,10.45,0,0,1,1.15-.07,11.18,11.18,0,0,0-3.11-.9c.89-.54,2.64-2.11,3.79-2.11s1.86-.18,1.68-.79a3.7,3.7,0,0,0-2-1.86c.36-.42.61-1.07-.25-2.82s-.54-2.93-.25-3.36a22.44,22.44,0,0,1,1.57-2.11,5.81,5.81,0,0,1,1.5-1.86,18.36,18.36,0,0,1,2.65-1.15c1.25-.43,2.29-1,3-.43a1,1,0,0,1,.43,1.26,6.44,6.44,0,0,1,4.69.25c2.22,1.07,7.62,1.75,7.62,1.75l1.93,3.9-12.81,11-5.29,2.64Z" fill="#e5c66b"/><path d="M106.2,141.46a49.67,49.67,0,0,0-4.86,3.61c.53.07,1.43.43,1.07,1A56.6,56.6,0,0,0,98,150.18a27.1,27.1,0,0,0-3.44,5c-.53,1-4.61,3.79-6,4.15,2.93,0,8.83-3.62,11-3.62a2.17,2.17,0,0,0,1.86,2.4,14.06,14.06,0,0,0,9.72-2.22c4.87-2.93,3.26-5.11,5.3-6.54,3.89-2.58,5.47-4.87,7.61-6.3a12.9,12.9,0,0,1,3.26-1.75s.07-1.07.71-1a1,1,0,0,1,.79.6,22.05,22.05,0,0,1,8.48-3.36.48.48,0,0,1-.25-.25s.35-.18.42-.36c0,0,.26-.35.43-.17s.43,1.5.79,2c.79-.35,2.29-3.72,2.29-3.72l3.61-10.33v-9.44l-2.82.53-21.21,9L107.7,138.28l-1.5,3.18Z" fill="#e6bd62"/><path d="M167.29,95.15a11.86,11.86,0,0,0,3.25-1.33,14.78,14.78,0,0,1-2.29,5.12,45.18,45.18,0,0,0-3.43,5.93c-1.5,2.94-1.68,7.16-3.11,9a6.43,6.43,0,0,1,2-.61,9.3,9.3,0,0,0-2,2.57c-.61,1.33-1.68,4.08-4.33,5.76s-6,2.75-9.62,6.72-7.33,8.84-9.19,10.63a26.61,26.61,0,0,0,2.64-7.26c.36-2.22-.07-4.87.54-7.8s.61-5,3.54-10.16,7.94-22.89,7.94-22.89L164,87.42l3.26,7.73Z" fill="#b6933f"/><path d="M159.49,88.6s-3.26,4.69-4.15,8.83-.07,3.8-.61,5.83a7.7,7.7,0,0,0,0,3.79,13.48,13.48,0,0,1,4.51-4.43c3.07-1.86,5.58-3.18,7.08-4.76s2.75-4.43,6-6.54c-1.33-.18-3.18-.79-3.54-.72,1.32-1.5,5.29-3.79,9.3-6.54s3.72-4,10.15-6.8c-2.11.36-3.11-.17-4.86,0,.71-1.5,3.18-2.21,5.65-4.68s-1.57-6.12-1.57-6.12L168.61,77.87,159.49,88.6Z" fill="#c49937"/><path d="M108.31,80.09l.43-3.43,5.4-8.66,5.65-15.2V32l-.43-12,.9-7.87.68-2.5.71-1,4.62,2.4,6.36,8.65.61,16.7-6.19,26.36L109.39,82.06Z" fill="#dfc068"/><path d="M122.37,7.71s-2.83.07-3.44,11.83-.89,18-1.32,23.79-1.43,9.36-1.93,12.8-.79,8.12-2.4,11c-.71,1.32-2.21,5.47-5.75,8.58a35.68,35.68,0,0,1-10.8,6c-1.58.36-9.55,1.14-12.81,2.93A19.51,19.51,0,0,0,78.63,88,67.33,67.33,0,0,0,64.4,107.27c-6.37,12.55-12.74,48-12.74,48l1.43-2.39s.18-3.19,3.37-8.76,2.21-11.84,6.54-22.54a121.58,121.58,0,0,1,6.37-13.87c4.07-7.33,9-13.63,14-17.06a44.25,44.25,0,0,1,17.06-6.8L110,77.48s1.68-3.26,3.9-7c3.11-5.22,7.08-11,7.94-19.52,1.32-12.55-1.86-20.78-1.68-28.22s.25-12.91,1.75-14.23.43-.82.43-.82Z" fill="#a88f33"/><path d="M122.37,63.85a135.11,135.11,0,0,0,6.18-19.7c.36-1.86,1.08-3.72,1.26-5.22.89-8.77,1.14-12.38,0-17.17-.9-3.54-4.33-6.72-6.12-9.19S121.12,9,121.47,8.49a4,4,0,0,1,3.11-1.32,10.64,10.64,0,0,1,7.62,3.54c2.76,3.18,4.94,14,4.94,14l2.29,14.24,5.83,18-22.89,7Z" fill="#c99e3d"/><path d="M167.26,57.55s-3.34-.35-4.77-.71c.07.72-2.54-1.75-3.9-.85-1.5-.61-15.55.6-15.55.6s-6.55-1.14-8.58-9.8c-1.44-5.75,1.07-13.69.25-18.91-1.26-7.69-3-9.2-3.19-11.59s-.36-3-.36-4.51a8.18,8.18,0,0,0-2-.43c-.18-.71.18-1.32-.61-2.57a14.14,14.14,0,0,1,6.79,3.79,12.89,12.89,0,0,1,3.26,4.15c.53.53,4.86,4.25,6.72,7.94s5.47,15.48,6.3,17.41a12.8,12.8,0,0,0,2.11,3.37c2.07,2.57,17,11.75,20.46,12.46Z" fill="#b58634"/><path d="M139.07,16.9a99.3,99.3,0,0,1,5.83,10.87c2.11,4.75,3.36,8.65,6,11.84-1.43-4.15-4-12.31-5.48-15.2a34.43,34.43,0,0,0-6.36-7.51Z" fill="#a88f33"/><path d="M114.75,75.69a52,52,0,0,0-10.34,4.44c-2.21,1.14-4.32,2.11-6.36,3A109.92,109.92,0,0,1,82.56,89c.36.43.54.61.54.61a4.49,4.49,0,0,0,1,2.75c-.54.54-7.69,5.4-5.58,21.67,1.43-.53,3.11-1.25,3.36-1.25.43.07.53,1.25,1.07,1.25s2.29-.71,4.15-3.11c-.07,1-1.15,10.69,4.61,17.24,1.08-1.25,3.79-5.4,3.79-5.4l.07-1.32a36.32,36.32,0,0,1,1.76-8.84,23,23,0,0,1,4.43-7.33L117,83.38l-2.29-7.69Z" fill="#e6c367"/><path d="M100.44,107.77a8.29,8.29,0,0,1-2.28,1.14,8.84,8.84,0,0,1,1.5-7c2.47-3.61,7.87-8.3,9.37-12,1-2.39.53-8.4,9.12-16.09S130.09,63.5,130.09,63.5l13.88-7L161,63.25l-8.48,33.22L146,112l-26.18-4.94-19.35.68Z" fill="#dcba5a"/><path d="M110.42,98.76l3.26-4.08v-2.9a18.45,18.45,0,0,0,7.51-4.93c3.9-4,9.3-11.59,14.05-11.12s5.22,10.33,5.4,13.09a75.74,75.74,0,0,0,1.75,12.37c1.08,3.36-11.58,16.09-11.58,16.09l-8.59,6.55Z" fill="#e9ce77"/><path d="M120.51,132.7s2.64-4.15.71-5a31,31,0,0,1,3.26-5.29s1.5-3.72,6.36-8.3,7.87-7.61,8.66-10.69a28.38,28.38,0,0,0,.78-6.11A12.17,12.17,0,0,0,142,98.4c.78.36,4.5,3.43,4,9.62s-2.82,8.76-2.82,8.76a41.7,41.7,0,0,1-3.79,3.36c-1.68,1.15-2.29,2.47-5.12,2.58a3.38,3.38,0,0,1,1-.54s-2.93-.36-4.51,1.08-4.93,5.82-6.61,7.15c-1.68,1.07-3.54,2.29-3.54,2.29Z" fill="#cdae50"/><path d="M239.42,63.14a43.07,43.07,0,0,0-13.16-2.58c-7.51-.25-18.49.18-29.26.25-11.58.07-22.1-4-36.69-4.68-2.39-1.43-8.47-7.69-27.5,5.58,1.14-.07,13.8-2.94,18.2,2.57s3.19,14.77,2.58,17c-1.15,4.93-4.87,12.12-6.37,17.17s-1.14,7.68-2.21,11.23-3.44,5.29-2,9.37c1.86-1.15,2.82-1.15,5.93-8.12s2.47-12,7.62-17.85S170,79,173.15,77s28.54-15.2,55.08-2.65c6.4-.68,11.19-11.19,11.19-11.19Z" fill="#d2a83e"/><path d="M143.5,58.27a3.1,3.1,0,0,0-.18-.78,5.33,5.33,0,0,0-1-1.43s-6.3-1.15-9.48-.79c-5.58.61-10.62,7.51-13,11s-5.29,9-8.48,11.84a1.13,1.13,0,0,0-.18-.79s.18.25-.17.61-.36.54-.18.71l.53.54c.18,0,5.12-2.22,11.84-8.47,7.15-6.55,12.63-9.91,15.49-11.06a21.79,21.79,0,0,1,4.75-1.43Z" fill="#c29637"/><path d="M265.6,31.38s-1.15,1.43-2.58,3c-3.18,3.37-7.33,7.16-10.87,11.06-3.36,3.71-7.15,6.61-11.41,11.48s-9.19,10.26-10.44,11.83a11.73,11.73,0,0,0-2,5.47l-1.32-.89A9.06,9.06,0,0,0,228,74.9c.89,1.26,2.29,2.83,3,3.79a11.42,11.42,0,0,1,1.86,4.08c.43.07,3.19.61,6.62-5s7.94-11.84,7.94-11.84l7.15-10.62,4.51-9,5.65-10.09.86-4.79Z" fill="#ac8132"/><path d="M272.93,24.16a55.29,55.29,0,0,0-6,5.65c-1.68,2.11-5.65,7.69-5.65,7.69l1.43-.18L270,30.88l2.83-5,.14-1.68Z" fill="#a88f33"/><path d="M271.61,308.36a7.41,7.41,0,0,1,1.57-4.68c1.68-1.75,5.94-4.33,10.08-14s4.62-11.84,4.62-11.84-7.44,6.36-12,7.87c1.07-2.22,1.68-3.79,2.22-4.94-.61-.54-3.18-1.14-3.43-1.43,1.43-1.43,2.21-4.93,5.11-7.26,3.72-2.82,10.51-7.69,15.81-12s15.66-14.41,17-17.34a6.47,6.47,0,0,1,1,1.86s-5.22,6.79-7.94,11.12c-2.4,3.72-2.22,5.83-2.22,5.83l4.94-2.11s1.43,5.29-5,13.34c2.82-1.07,4-.43,5.58-1.32a25,25,0,0,0-9.73,10.26c-3.36,6.3-7.94,13.63-15.67,18.2a129.21,129.21,0,0,0-11.83,8.44Z" fill="#a67a2e"/><path d="M252.22,66.86s-2.93,6.11-3.36,10.87c-.07,1.14-.36,2-.36,3.36-.07,4.26.25,9-.71,11.23a6,6,0,0,0-.9-1.86c-.53,1.5-1.5,6.19-2.29,7.94a37.69,37.69,0,0,1-1.07-9.8c.07-4.68.18-5.58.18-6.54a28.59,28.59,0,0,1-1.5,4.5c-.54-1-1.15-2.21-1.86-3.25a21,21,0,0,1-1.43,2.29c-.07-.43-.25-1.58-.36-3.19a44.89,44.89,0,0,1-.07-4.75,21.57,21.57,0,0,1,4.86-8.23c3.79-4.15,7.69-12.12,8.84-14.59s6-12.73,6-12.73h3.72l-5.4,12.3s-3.25,6.73-4.93,9.19-5.22,9.55-6.8,12.31c1.15-1.51,2.11-2.29,3.26-3.72a59.54,59.54,0,0,0,4.18-5.33Z" fill="#8c6228"/><path d="M273,23.69a15.29,15.29,0,0,1-2.82,5.12c-2.22,2.64-7,6.18-9.3,9-2.11,2.75-6.37,10.26-4.44,19.17A32.47,32.47,0,0,1,262,46.9c3.54-4.33,7.33-9.3,9.19-13.16a22.11,22.11,0,0,0,2.11-7l.72-.9-.43-2-.61-.14Z" fill="#cba94c"/><path d="M273.18,23.26l-.18.43a.75.75,0,0,1,.43.9,21.31,21.31,0,0,1-.18,2.93c-.18,1.25-.54,2.22-.61,3,0,1.68.25,3.61-2.11,8.41-.71,1.32-1.14,2.46-1.5,3.25a9.49,9.49,0,0,1-1.86,3.11c1.25-.71,5.76-3.54,8.05-3.11a16.65,16.65,0,0,0-5.47,4.94,12.58,12.58,0,0,0,4.25,0c4-.61,8.41-2,12.3-1.76,4.26.25,2.58-5.11,2.58-5.11l-4.94-10.8-9.29-6.55-1.47.36Z" fill="#be9c44"/><path d="M297.43,104.16s-4.15-4.15-5.83-18.38-1.33-35.37-1.33-35.37l-3.36-8.23s-.71-5.47-2.47-7.51-5.22-5.47-6.79-7.15-3.36-4-4.43-4.33c.53-.89,2.93-5.94,12.12-6s12,5,13,6.9,5.29,9.91,6.9,25.22S306.8,65.75,306.55,71a123.91,123.91,0,0,1-2.83,17c-1.54,6.15-3.22,13-6.29,16.13Z" fill="#a17c34"/><path d="M256.23,72.22s-.61.43.61,1.25a13.68,13.68,0,0,1-1.15,1.76c-.61.71-1.25,1.14-1.5,1.75a9.71,9.71,0,0,0-1,2.64,13.07,13.07,0,0,1-1.68,6.19,27.55,27.55,0,0,0-1.57,3,22,22,0,0,0-1.86,3.54A36.45,36.45,0,0,0,247.5,97s.79-1,1.07-1.32A9.64,9.64,0,0,1,247,98.29c.43-.35,1.68-1.25,3.79-3.11a94.63,94.63,0,0,1,13.09-9.91,19.07,19.07,0,0,1-4.25.79c.89-.89,8.94-10.33,13.16-11.23a1.63,1.63,0,0,0,.35-1.14l-3.61-.36L262.2,74.9l-1.07-5.65-4.9,3Z" fill="#b18e3e"/><path d="M267.89,104.41a9.8,9.8,0,0,0-1.86,3.36,11,11,0,0,1-1.76-2.4c-1.32-2.21-3.36-5-8.11-3.43a14.39,14.39,0,0,1,0-3.36c.78-.18,3.18-2.11,5.58-4.94a22.73,22.73,0,0,0,4.32-7c.72-.54,1.93-1.43,3.54-2.47,2.29-1.57,5-3.72,5.47-6.11a14.56,14.56,0,0,1-6.79,1.32c1.32-.61,3.36-1.25,3.11-3.9.54-.36,1-.61,1-.61a3.53,3.53,0,0,0-1.25-.18c-.08-.25-.18-.6-.79-.42s-.72.17-.79.42a3.92,3.92,0,0,0-1.68.43,26.59,26.59,0,0,1-2.93,2.11l.61-1.07a12.24,12.24,0,0,0-3,.72,60.8,60.8,0,0,0-7.62,3.61c.25-.43.36-.72.54-.79s.61-.18.61-.25a2.49,2.49,0,0,1-.07-1,32.67,32.67,0,0,1,2.82-4.87,9.46,9.46,0,0,0,1.5-4.07l5.48-2.76,15.37-3.54,10,.61-1.25,6.9-5.9,12-5,11-5.76,6.73-5.29,3.86Z" fill="#543e26"/><path d="M163.32,130.05s-.79,3.25-2.58,4.86-4.86,2.94-5.22,5.58,3.11,4,3.11,4-1.93,3.19-1.93,5.58a36.87,36.87,0,0,0,.18,5.29,2.41,2.41,0,0,0-.72.72,5.86,5.86,0,0,0,1.93,3.72c1.76,1.43,3.26,2.29,4.15,1.93a8.7,8.7,0,0,1,.36.89s1.32-3.36,2.22-6.29,1.68-2.57,2-6.62,4.25-11,4.25-11l2.65-5.93-4.33-3.36-6.11.64Z" fill="#b6903c"/><path d="M171.36,135.88a26.33,26.33,0,0,0-2.47,2.93c-1.14,1.58-2,3-3.71,3.61s-2.76.61-2.65,2.29,1.68,2.4,2.57,3.26a4.16,4.16,0,0,1,1.33,4.07,4.07,4.07,0,0,0,2.39-2.46c.9-1.93,7.16-13.7,7.16-13.7Z" fill="#685026"/><path d="M196,108.74a3.52,3.52,0,0,0,0-2.47c-.53-1.08-3.79-1.43-5.4-2.65s-3.72-2.11-5.4-1.57c.25-.61,1.25-1.93.43-2.22s-3.72,1.07-4.5,1.68-2.58,1.32-2.94,1.75-1,1.26-1.32.9-.54-.9-1.14-.54-3.55,2.76-4.08,4.15a21.24,21.24,0,0,1-5.4,8c-3.61,3.54-5.22,5.83-4.15,7.15s1.57.36,1.75,1.5a9.55,9.55,0,0,1-.18,3.36c-.43,1.86-1.14,3.61-.18,4,2.47.79,4.87-.71,5.4-.25,1.08,1-.6,4.44,1.94,5.12a7.86,7.86,0,0,0,5.11-.61l9.37-5,9-4.76,4.62-9.12-2.47-7.62-.47-.78Z" fill="#d4b968"/><path d="M187.17,130.52a3.77,3.77,0,0,1,.36-4.51c1.93-2.11,4.68-3,5.76-4.33a1.62,1.62,0,0,0-.79-.53,7.06,7.06,0,0,1,3.11-2.94,3,3,0,0,0-2-1c-1.75,0-2.82,1.07-4.43,1.07s-1.76-.79-1.76-.79,2.65-.25,2.4-1.43-.72-1.25-.72-1.25,5.12-2.11,6-3.25a6.55,6.55,0,0,0,1-3c.61,0,4.15-1.86,5.58-1.07s.43,2.93.43,2.93a35.59,35.59,0,0,0,6.54-6.44c1.93.18,2.83-1.32,4.26-1.32,1.75,0,4.5,2.4,5,7.51a32.23,32.23,0,0,1,.36,9.8c-.25,2.93-.18,9.19.71,12.3.61,2.47,2,2.22,2,2.22a4,4,0,0,1-1.25,1.93c-1,.9-1.07,3.26-1,4.15a17.85,17.85,0,0,0,.54,1.93,9,9,0,0,0-1.43,2.22,2.52,2.52,0,0,1-2.29,1.5,11.58,11.58,0,0,0-1.57,0c-1.15.07-1.5.25-2.22,0s-1.25-.54-1-2.82-8.83-7.62-8.83-7.62l-14.84-5.29Z" fill="#cca849"/><path d="M170.11,153.12s3.26,4.32,16.63,4.32c6.37,0,8.58-.6,9.91-1s6.79-2.47,12.19-8.83c4.87-5.76,3.79-8.12,3.79-8.12l-2.82-.43-9.19,1.25L173.4,151.94l-3.29,1.18Z" fill="#585136"/><path d="M180.09,154.19s-11.59,2.58-11.59-4.76c0-7.15,7.15-14.66,8.94-16a33.26,33.26,0,0,1,6.3-2.83h10.69l2,5.4-.9,11.66-15.48,6.51Z" fill="#252211"/><path d="M190.78,132.8s-2.22-2-7.26.72-9.12,8.47-9.37,13.7c-.25,4.61,3.79,8,10.09,8.22a31.85,31.85,0,0,0,8.94-.71C192.82,154.3,191,152,191,152l-.18-19.17Z" fill="#c3b378"/><path d="M188.6,134s-.54-.43-2.11.43a35.06,35.06,0,0,0-4.76,3.9,18,18,0,0,0-2.11,1.75c-2.21,2.64-4.07,7-3,9.12s4.61,4.61,13.63,2.93L188.6,134Z" fill="#e6d89c"/><path d="M185.67,138.38a11.4,11.4,0,0,0-1.43,5.76c0,3.61,2,9.37,9.55,9.8,5.75.36,9.62-8.3,13.8-11.66,3.18-2.57,5.11-2.65,5.11-2.65s-3.25-3.54-11.94-8.11-18.2-5.22-23.43,1.86c2.47-.18,10.45-2.22,10.45-2.22l3.9,1.25Z" fill="#252211"/><path d="M196.9,143.07c-.25-.54-.43-1.25.61-1.43s1.5-.07,1.85.71.72,1.43.18,1.76A2.47,2.47,0,0,1,196.9,143.07Zm-1.68-5s-.36.25-.18-.26.53-1.68,1.68-1.43.89,1.51.71,1.86a1.86,1.86,0,0,1-1.86.72A.59.59,0,0,1,195.22,138Z" fill="#6f674d"/><path d="M98.41,140.31a11.12,11.12,0,0,0,6.11,2c3.26-.07,7.44-3.43,9.37-5.58,1.15-1.25,2.11-2.57,3.18-3.61a18.4,18.4,0,0,0,1.94-1.93c.6-.71,1.25-2,1.57-2.47a33.88,33.88,0,0,1-3.11,2.4,35.3,35.3,0,0,1-4.62,2.39c-1,.36-11,5.66-11,5.66l-3.46,1.1Z" fill="#ac924c"/><path d="M102.73,113.89a14.38,14.38,0,0,1,4.62-1.76,85,85,0,0,1,8.83-1.25L121,113l1.94,7.33-3.55,7.62-4.5,2.83-5.12-8.23-7.08-8.65Z" fill="#9f8e57"/><path d="M96.37,120.43l-1.68,1.25a10.93,10.93,0,0,0,.78-3.18c.36-2.4,2.22-8.23,4.94-11.59a36,36,0,0,1,2.65-3.18,1.8,1.8,0,0,0-1.44.36,17.38,17.38,0,0,1,4.94-5c2.29-1.43,3.18-1.86,5.58-.71s3,1.75,4.76,1.68,3.25-1.93,3.25-1.93.36,1.14-1,3.79-6.54,8-6.54,8l-10.87,7.43-5.4,3.08Z" fill="#eac970"/><path d="M104.41,113s7.87,1.07,10.27-1.14c.07.25.36.25.36.43a.63.63,0,0,1-.18.35,5.81,5.81,0,0,1,.78-.07,4.73,4.73,0,0,0,1,.18,5.85,5.85,0,0,0,.79-.07,1.34,1.34,0,0,1-.54.89c.36,0,.71.07.71.36s.08,1.15-.35,1.32a1.63,1.63,0,0,1-1.08-.07,4.37,4.37,0,0,0,.54,1.93c.72,1.33,2.22,2.83,4.26,2.4,0,0,1.07,2.58-3.44,8.3-.6.78-1.25,1.86-2,2.75a10.72,10.72,0,0,0-.71,2.11s7.62-2.93,9.8-9.62a50.48,50.48,0,0,0,2.22-19.53,10.1,10.1,0,0,0-.79-3.89c-1.07-2.22-4.08-1.86-5.29-.61-1.76,1.75-4.69,6.11-8.77,9.12s-4.32,3.54-7.51,4.86Z" fill="#d7bc6b"/><path d="M95,122.65s-1.5.89-2.29,4.25a13.93,13.93,0,0,0,1.58,8.94c.89,1.33,2.82,4.94,6.9,5.12a7.55,7.55,0,0,0,2.93-.61,18.32,18.32,0,0,0,4-2.47c1.75-1.32,3.18-2.47,3-2.57-.43-.18-10.8-8.76-10.8-8.76l-3.9-4.37Z" fill="#585136"/><path d="M104.77,136.88a9.18,9.18,0,0,0,3.36-1c1.26-.79-7.33-9.3-7.33-9.3l.61,9.19Z" fill="#453a25"/><path d="M95.65,122a12.39,12.39,0,0,0-1.07,2.58,45,45,0,0,0,.79,9c.43,1.86,2.75,4.69,5.75,4.69,1.86,0,4.44-1.15,4.44-1.43s-2.65-.72-3.36-2a12.32,12.32,0,0,1-.72-4.26c-.07-1.14-.07-2.4.36-2.82,1-1.08,1.14-4.15,1.14-4.15l3.44-6.37h-4.51l-5.4,3.36L95.65,122Z" fill="#84754b"/><path d="M94.33,124s3.54-4.68,6.72-5.76,4.62-.43,4.62-.43l-1.86,4.76-2.65,2.93.18,1.5a9.18,9.18,0,0,0,2.22,6.73c2.64,2.75,4.61,2.64,5.75,2.64s4.44-1,6.12-4.93c1.5-3.72,2.75-8.48-.25-13.27a10.77,10.77,0,0,0-9.12-4.93C105.06,113.24,97.19,113.6,94.33,124Z" fill="#252211"/><path d="M185.13,139.88c-1.32-.6-.07-4.32,1.25-5.47a9.38,9.38,0,0,1,5.94-2.64c1.07-.07,2.11.6,1.93,1.32-.25,1.32-2.11,3.18-3.79,4.51-2.32,1.82-3.83,3-5.33,2.28Z" fill="#f7f7e7"/><path d="M113.61,119.61a2.55,2.55,0,0,1,2.46,1.75c.25,1.14-.61,3.43-2.46,3.43-1.51,0-2.29-1.86-2.29-2.39a2.8,2.8,0,0,1,.35-1.25A2.06,2.06,0,0,1,113.61,119.61Z" fill="#f8f6de"/><path d="M99.66,120.43A8.26,8.26,0,0,0,96.05,124a9.35,9.35,0,0,0-.72,5.65,13.79,13.79,0,0,0,1.68,3.9,2.69,2.69,0,0,0,2,1.25,3.6,3.6,0,0,0,1.86-2.65c0-1,.07-5,1.25-7.26s-2.5-4.43-2.5-4.43Z" fill="#d4c38b"/><path d="M100,120.25c-.43.25-1.15.61-1,1.07s1.68.72,2.22,1.76a3.82,3.82,0,0,1,.43,2.75,4.56,4.56,0,0,0,1.25-.89c.78-.9,1.75-2.11,2.57-2.11.54,0,1.08.25,1.58.25.78,0,1.57-.25,1.68-1.08.18-1.07-1.5-2-2.47-1.86a2.32,2.32,0,0,0-.36-2.46c-.78-.72-3.25.53-3.79.89s-2.14,1.68-2.14,1.68Z" fill="#e2d59d"/><path d="M156.84,195.39l5.3-1.57,1.5,1.07s1.07,2.29,2.75,2.57c-.54,1.15-1.93,2.11-1.86,2.94a2.42,2.42,0,0,0,.79,1.43s-4.76,7.86,4.61,15.8c-2.22.9-5,2.11-6.54,2.83,1.07.25,3.36.71,4.32,1.57s1,1.15,1.86,1.68,1.43,1.26,1.26,1.58c-.61-.36-2.65-1.43-3-.43s-8.83.61-8.83.61l-14.31,2.75a2.57,2.57,0,0,0-1-2.75c-1.75-1.58-3.9.07-6.19-1.69-3-2.28-3.11-4.93-4.08-5.93,1-.61,2.94-1.5,7.62-2.11a3.15,3.15,0,0,1-.43-2.4c.43-1.25,2.22-2,1.68-3.54.79-.18,1.15-.18,3.11-2.64s3-3,4.44-3.19,2.29,0,4.93-2.47c1.86-1.75,1.26-3.25,1.26-3.25S157.27,197.86,156.84,195.39Z" fill="#cbac5a"/><path d="M141.21,196.18c.08-.36.36-.54,2.29-.36s14.17-1.15,17.49-1.33,15.2-.07,21,1.15,11.59,2.65,14.41,3.36,3.72,1.07,3.61,1.43a1,1,0,0,1-1.07.61c-.36-.07-9.73-2.93-12.62-3.54s-12.91-2.22-18.39-2.11a95.71,95.71,0,0,0-11.48.43c-4.32.53-11.48,1.25-13.62,1s-1.68-.25-1.58-.6Z" fill="#d6bc6f"/><path d="M170,224.21s7.33,4,10,8.84c1.93,3.61-1.14,5.4-1.14,5.4s4.15,0,3.61,2.29c-.25,1.43-7.15,5.29-11.77,7.33s-4.5,1.93-6.79,2.29-8.3-.72-9.55,1.07a3.48,3.48,0,0,0-.36,3.9,20.29,20.29,0,0,0,3.26.61s-.61,1.68-6.62,1.86-7.51.6-7.87,1.25,1.15.25,3.9.71,6.62.72,6.62.72a12.34,12.34,0,0,1-4.51,1.93c-3.72,1-9.55,1.86-11.3,2.93a10.41,10.41,0,0,0,2.82,1.57,17.78,17.78,0,0,0-4,1.44c.54.35,1.26.78,1.26.78s-3,3.61-4.76,4.51-11.84,5.58-15.31,4.68c-8.65-2.29-9.72-11.76-11.83-12.48-3.19-1.07-4.69,1.07-7.51-.43a17.93,17.93,0,0,1,3.25-2c-1.43-.71-8.83-5.4-8.83-5.4s-.9-2-2.58-4.93c-1.43-2.47-3.54-5.76-5.11-8.66-3.44-6.36-3.61-9.29-6.73-12.91.54-.71,2.4-.6,2.4-.6l26.07,8.58,46.24,1.32,12-17.16,5.11.6Z" fill="#dfc677"/><path d="M101.52,250.39a3.89,3.89,0,0,0,1,.79,13.63,13.63,0,0,1,3.11,2.4c.36-.54,1.26-1.51,2.83,0s3.54.42,4.76.78,1.32.61,1.32.61a8.93,8.93,0,0,1,2.29-1.25c1-.36,2.11-.61,3.36-1a18.89,18.89,0,0,1,3.25-.61c.79.54,3.62,3.55,14.95-.89,10.7-4.15,13.16-4.61,15-4,.18-.43.36-1.25,3.11-1.14,0-1.15-2.29-5-2.29-5l-12.62-4.32h-6.9l-20.71,3.79-11.48,6.54-.89,3.29Z" fill="#c4a859"/><path d="M94.62,243.13s.25,1.93,3.11,4a18.31,18.31,0,0,1,3.72,3.26s.53-.72,1-1.43.79-1.68,1.5-1.94c1.43-.6,4.69.54,5.4.36s.43-1.43,1.08-1.43c1.5-.07,2.46,1,3,1s1.86-.07,2-.36.25-3.25,2.29-4.68a6.08,6.08,0,0,1,5.65-.54c0,.54.07,1.86,1.5,1.93s1.57-.18,2.83.25,2.75-.07,3.43,2c.61-.18,2-.36,1.68-2.4a10.19,10.19,0,0,0,2.83-3c.35-.54,1-1.15,1.43-1.93a5.82,5.82,0,0,1,4.75,1.5,2.85,2.85,0,0,0-1.14,1.14,13.38,13.38,0,0,1,1.43,1.68c.53.72.89,1.58,1.57,1.76,1.5.43,4-.18,6.73,0a13.47,13.47,0,0,1,5.82,1.75c.36-.18.36-.25,1.26-.07s1.57.25.6-.9c.54.25,1.15.79,1.69.25a3.5,3.5,0,0,1,2.46-1.5c1.5-.18,2,.07,2.65-1.5.79-1.93-1.93-1.93-1.93-1.93s1.25-1.15,2.64-2.65c1.69-1.57,3.62-3.61,4.08-6.11.79-4.62-3.72-5.22-3.72-5.22l-21.85,6.72L117.4,231.8,94.62,243.13Z" fill="#927d49"/><path d="M75,180a7.66,7.66,0,0,0-1.14,3c-.43,2.11-.25,1.85-.61,3.36s-4.76,16.45-3.11,21.49,4.5,6.9,6.29,11a14.79,14.79,0,0,1,.9,2.22c.6,2.64.07,4.68.78,7.33a8.16,8.16,0,0,0,1.86,3c2.11,2.22,5.58,4.33,7.08,5.83,2.11,2.22,5.12,6.73,8.94,7.15,2,.25,4.94-.6,7.34-2,2.11-1.33,3.43-3.19,5.65-4.26a21,21,0,0,1,4.75-1.43,21.24,21.24,0,0,1,7.62-.36c2.57.54,8.65,2.4,12,2.4a32.81,32.81,0,0,0,7.79-1.07c5.12-1.51,11.3-4.08,15.38-5.23,2.4-.71,4.33-.89,6.3-1.32,3.36-.79,6.18-1.86,7.79-3.9-1.07-1.25-2.39-3.18-9.55-3.11-8.12.18-17.49,4.69-22.1,5.4s-6.62,1.32-11.76-.54-5.23-3.11-5.23-3.11-5.29-3.72-7.51-13.16,0-16.34,5.76-22.89a3.8,3.8,0,0,0,1.15-3.18s3.79-5.11,2.75-9.9-8.48-3.8-8.48-3.8L75,180Z" fill="#6e6342"/><path d="M81.1,195.93a3.67,3.67,0,0,0-.43,1.93c.07,1,.36,2.21,3.25,5a6.17,6.17,0,0,1,1.93,5.22s1.25.25,4.62-1.32c2.64-1.25,3.54,1,3.54,1a7.56,7.56,0,0,1,2.46-.78,5.33,5.33,0,0,0,2.22-.72,32.1,32.1,0,0,0,5.83,4.69c2.47,1.32,3.9,2.21,5.12,1.32a3.4,3.4,0,0,0,1.07-3.11,9.33,9.33,0,0,0-1.07-1.86c-.79-1.15-2-2.47-2.11-3.54-.18-2.47,1.86-5.4,1.43-6.12s-2-.89-6,.54-21.85-2.25-21.85-2.25Z" fill="#39331f"/><path d="M90.47,211.91s-2-1.93-1.33-11.3a11.69,11.69,0,0,1,2.58.25s1.11,7.26-1.25,11Z" fill="#292311"/><path d="M76,172.86a5.6,5.6,0,0,0,.78-.72c-.71,1.33-4,6.62-1.32,15s9.3,14.49,17.49,14.77,12.48-3.72,17.42-9.73c1.93-2.39,4.14-5.4,6.11-7.43,2.93-3.19,5.22-4.08,5.22-7.16,0-6.29-6.44-9.12-15.91-11.94s-18-2.47-22.46-.54c-4.33,2.11-6.19,4.33-7.33,7.8Z" fill="#252211"/><path d="M115.57,207a2.89,2.89,0,0,0-2.47-.25c-1.14.53-1.07,2.64-1.07,2.64a1.7,1.7,0,0,0,1.58-.18A4.83,4.83,0,0,0,115.57,207Z" fill="#574f35"/><path d="M117.93,209.8c-.07-.71-.71-.71-.71-1.07a.8.8,0,0,1,.78-.61c.36,0,.72.43,1.15.72s1.07.71,1.14,1.25-.71,2-1.57,2-.61-1.61-.79-2.33Zm6.9-1s-1.43.43-1.32,0,.43-.54.9-.54a1.37,1.37,0,0,1,.89-.43.79.79,0,0,1,.54.18s1-.43,1.25-.18.07.25.25.54a2.47,2.47,0,0,1,.43,1.07c0,.29-1.08.89-1.93.79-1-.22-.83-1.26-1-1.43Zm2.13-6s-1.43.43-1.33,0,.43-.53.9-.53a1.39,1.39,0,0,1,.89-.43.79.79,0,0,1,.54.18s1-.43,1.25-.18.07.25.25.54a2.47,2.47,0,0,1,.43,1.07c0,.28-1.07.89-1.93.78s-.82-1.25-1-1.43Zm6.21,4.41s.43.25.07.53a5.68,5.68,0,0,1-2.58.79c-1.07,0-2,.18-2-.18s.89-1.07,1.43-1.25a1.13,1.13,0,0,1,.89-.43c.43,0,2.11-.18,2.58-.25s.78.18.53.54S133.17,207.23,133.17,207.23Zm2.47-11s-.54,1.14-1.15,1.14-.61-.25-.61-.43.61-.89.54-1.07c-.18,0-.61,0-.54-.43s.61-.79,1.15-.72a2.32,2.32,0,0,1,1.43-.53c.61,0,1.14.18,1.14.53s-.71,1.15-1,1.33S136,196.46,135.64,196.18Zm-8.16,21.13s-.71.07-.71.43c0,.18.17.18.43.07a2,2,0,0,0,.42-.07c.08.07.08.43.61.43a3.41,3.41,0,0,0,1.25-.43c.43-.18.79-.36.79-.71a1.07,1.07,0,0,0-1.07-.9,1.43,1.43,0,0,0-.79.18s-.18-.36-.79,0-.53.36-.35.54.21.46.21.46Zm-4,3.72c0-.18.89-.54,1.14-.43a4.54,4.54,0,0,1,1,1.58c0,.17-.89.6-1.25.6a1.63,1.63,0,0,1-1-.71c0-.07.43-.18.43-.25s-.32-.61-.32-.79Zm-2.83-5.22c.18-.07.18-.25.43-.43a.62.62,0,0,1,.54-.07.87.87,0,0,1,.61-.43c.43-.07.79,0,.71.18,0,.54.36.89.36,1.32s-.25,1-1.14,1.33a6.06,6.06,0,0,1-2.29.17,1.16,1.16,0,0,1-.18-1.14,2.44,2.44,0,0,1,1-.93Zm6-17.72s.1,1.26-.42,1.56-.66.08-.75-.07.09-1.08-.06-1.2c-.16.09-.53.3-.68-.11s.14-1,.64-1.18a2.35,2.35,0,0,1,1-1.18c.53-.3,1.08-.41,1.26-.1a3,3,0,0,1-.19,1.63C127.29,197.83,127.07,198.16,126.61,198.09Zm-5.23,5.47s.89.9.68,1.47-.45.48-.62.42-.62-.88-.82-.87-.21.57-.58.35-.53-.84-.28-1.32a2.35,2.35,0,0,1,0-1.53c.21-.57.57-1,.9-.89s.82,1.07.9,1.37S121.78,203.32,121.38,203.56Z" fill="#82764f"/><path d="M121.76,216.06s-.61.36-.61.54a1.6,1.6,0,0,0-.07.53c0,.11.79-.07.89-.18s-.21-.71-.21-.89Z" fill="#6e6342"/><path d="M116,214.74a10.21,10.21,0,0,0-1.43,1.32c-.36.43-2.11,2.65-2.65,3.11a6.52,6.52,0,0,1,.61-.89,3.67,3.67,0,0,0-1.5,1.93c-.43,1.32,2.4,2,4.26,2.57s2.57.72,2.57.72a19.77,19.77,0,0,1-1.75-3.26c-.72-1.68-1.07-1.86-.61-2.64s.89-1.33.89-1.93a8.75,8.75,0,0,0-.39-.93Z" fill="#574f35"/><path d="M75.23,217.56a2.21,2.21,0,0,0,.79,0c.53-.07,6.11-2.11,11.94-1.75a64,64,0,0,1,12.91,2.11c7.34,1.93,16.45,5.76,22.36,7.94,1.57.61,3.11,1.68,4.25,2.11,4.51,1.75,4.69,1.75,7.33,2.22,3.11.43,6.3-.61,9.62-1.33,4.08-.89,11-1.32,17.17-2.21a34.8,34.8,0,0,0,5.83-1.33s-4.87,4.87-16.52,6.62a51.85,51.85,0,0,1-14.24.18,43.94,43.94,0,0,1-8-1.43c-2.11-.61-6.44-2.22-11.77-3.54-3.72-1-7.87-1.68-12.62-2.58C92.51,222.43,79.77,220,75.23,217.56Z" fill="#252211"/><path d="M67.83,206.19a37.71,37.71,0,0,1-3.36,3.43L60.93,213c-1.15,1.15-2.22,2.29-3.44,3.44s-2.39,2.11-3.72,3.11l3.44-3.36c1.14-1.15,2.39-2.11,3.61-3.26l3.43-3.36c1.18-1.18,2.33-2.32,3.58-3.36Zm.54,6.19a75.78,75.78,0,0,1-3.8,8.76c-3,6-7.51,13.52-9.47,17.34" fill="#cfb66c"/><path d="M81.1,241.7a17.73,17.73,0,0,0-3.19,10.62C78.88,249.21,80.1,244.46,81.1,241.7Zm3.36,4.69s-1.25,12.73-2.29,19C83.64,258.15,83.92,258.76,84.46,246.39Zm23.42,19.74s-5.29,15.55-5.4,19.88C103.63,281.58,105.84,272.49,107.88,266.13Z" fill="#dec270"/><path d="M120.26,240.74s8.58,14.16,15,26.25C133.53,260.91,129.52,249.75,120.26,240.74Z" fill="#cbaf59"/><path d="M211.13,282.47c1.43-.89,4.26-5.76,6.72-7s4.33-1.5,6.55-4,2.82-4.15,7.69-6.19c6.79-2.93,2.11-6.72,2.11-6.72a21.23,21.23,0,0,1,2.39-2c1.76-1.32,3.79-2.93,3.62-5.76-.25-4.75-1.15-11.66-5.05-15.66,3.79-.79,11.05-1.33,15.56-2.47a22.21,22.21,0,0,0,7.62-3.18s-3-5.12,1.86-10.27S269,211,272,205.26c-3.36-.43-8.47-2.22-21.56,2.75a16.77,16.77,0,0,1,2,1.15s-8.05,2.22-11,4.68c-5.12,4.33-5.76,7.87-11.3,10.52s-11.13,1.93-15.74,4.07-5.29,4-7,4.76c.35.43-.07,1.14.61,1.75-.43.61-2.94,4.69-5.48,4.69.25,1,2.4,1.68,2.4,1.68s-1.57,1.14-5.58,1.43a41.17,41.17,0,0,0,9.3,7.8c-.43.89-2.22,2.21-1.5,3.89s2.82,4,11,5.83c-4.15.18-9,1.15-15.56.25s-7.62-1.25-11.66-.25c.43.43,1.57.43,2.58,1.58-1.08.07-7.8-.79-10.09,2.21s-3.43,8.23-3.25,11.66a3,3,0,0,0-1.86,3.9c.6,2.22,3.79,2.93,5.83,4.33s2.21,2,4.14,1.68,5.05-2.47,6.8-2.47a4.57,4.57,0,0,1,3,1.32s4.76-2.28,5.22-1.86.08,3.19.54,3.62,5.83-2.86,7.26-3.76Z" fill="#ecd592"/></svg>